<?xml version="1.0" encoding="UTF-8" standalone="no"?>
<!-- Created with Inkscape (http://www.inkscape.org/) -->

<svg
   width="100mm"
   height="100mm"
   viewBox="0 0 100 100"
   version="1.1"
   id="svg1264"
   xmlns="http://www.w3.org/2000/svg"
   xmlns:svg="http://www.w3.org/2000/svg">
  <defs
     id="defs1261">
    <clipPath
       clipPathUnits="userSpaceOnUse"
       id="clipPath94">
      <path
         d="m 1289,283.465 h 126 V 409 h -126 z"
         id="path92" />
    </clipPath>
  </defs>
  <g
     id="layer1">
    <g
       id="g88"
       style="display:inline"
       transform="matrix(0.65060533,0,0,0.65060264,-829.26741,-175.4676)">
      <g
         id="g90"
         clip-path="url(#clipPath94)">
        <path
           d="m 1391.875,345.91 c 0,22.25 -18.051,40.293 -40.297,40.293 -22.262,0 -40.293,-18.043 -40.293,-40.293 0,-22.25 18.031,-40.285 40.293,-40.285 22.246,0 40.297,18.035 40.297,40.285 m -40.297,-62.441 c -34.496,0 -62.457,27.957 -62.457,62.441 0,34.492 27.961,62.449 62.457,62.449 34.481,0 62.442,-27.957 62.442,-62.449 0,-34.484 -27.961,-62.441 -62.442,-62.441"
           style="fill:#e32119;fill-opacity:1;fill-rule:nonzero;stroke:none"
           id="path96" />
      </g>
    </g>
    <g
       id="g98"
       style="display:inline"
       transform="matrix(0.65060533,0,0,0.65060264,-829.26741,-175.4676)">
      <path
         d="m 1274.609,333.305 h 153.703 v 25.262 h -153.703 z"
         style="fill:#e32119;fill-opacity:1;fill-rule:nonzero;stroke:none"
         id="path100" />
      <path
         d="m 1330.605,345.293 c 0.899,0.187 1.598,0.57 2.079,1.148 0.488,0.579 0.73,1.274 0.73,2.086 -0.01,1.141 -0.414,2.078 -1.219,2.809 -0.804,0.73 -1.957,1.094 -3.449,1.094 h -4.223 v -13.004 h 3.813 c 1.281,0 2.285,0.289 3,0.867 0.719,0.574 1.074,1.367 1.074,2.371 0,0.641 -0.152,1.191 -0.461,1.652 -0.316,0.457 -0.761,0.786 -1.344,0.977 m -3.55,-0.801 h 1.152 c 0.52,0 0.934,-0.129 1.234,-0.383 0.305,-0.254 0.457,-0.597 0.457,-1.035 0,-0.453 -0.144,-0.804 -0.433,-1.062 -0.285,-0.258 -0.68,-0.387 -1.184,-0.387 h -1.226 z m 0,5.731 h 1.691 c 0.66,0 1.176,-0.149 1.543,-0.446 0.367,-0.293 0.551,-0.707 0.551,-1.25 0,-0.609 -0.192,-1.066 -0.57,-1.371 -0.391,-0.304 -0.961,-0.457 -1.731,-0.457 h -1.484 z"
         style="fill:#ffffff;fill-opacity:1;fill-rule:nonzero;stroke:none"
         id="path102" />
      <path
         d="m 1347.34,346.461 c 0,0.902 -0.098,1.668 -0.285,2.301 -0.188,0.629 -0.535,1.258 -1.035,1.879 -0.504,0.621 -1.145,1.117 -1.922,1.484 -0.778,0.371 -1.637,0.555 -2.575,0.555 -1.058,0 -2.015,-0.235 -2.871,-0.692 -0.855,-0.461 -1.562,-1.125 -2.117,-1.988 -0.562,-0.867 -0.84,-2.023 -0.84,-3.465 v -7.109 h 2.535 v 7.133 c 0,1.121 0.297,2.015 0.899,2.687 0.601,0.668 1.394,1 2.375,0.996 1.004,0 1.805,-0.332 2.398,-0.992 0.598,-0.66 0.899,-1.559 0.899,-2.691 v -7.133 h 2.539 z"
         style="fill:#ffffff;fill-opacity:1;fill-rule:nonzero;stroke:none"
         id="path104" />
      <path
         d="m 1355.488,342.559 c -0.386,-0.762 -0.988,-1.141 -1.8,-1.141 -0.403,0 -0.735,0.109 -0.993,0.324 -0.257,0.215 -0.386,0.488 -0.386,0.817 0,0.242 0.066,0.461 0.203,0.652 0.129,0.195 0.336,0.383 0.617,0.562 0.277,0.18 0.797,0.469 1.559,0.86 1.23,0.637 2.062,1.246 2.492,1.828 0.429,0.582 0.644,1.309 0.644,2.16 0,1.234 -0.418,2.219 -1.238,2.953 -0.828,0.735 -1.906,1.106 -3.25,1.106 -0.953,0 -1.797,-0.242 -2.543,-0.723 -0.75,-0.484 -1.316,-1.156 -1.703,-2.019 l 2.086,-1.227 c 0.488,1.09 1.242,1.633 2.246,1.633 0.551,0 0.996,-0.137 1.328,-0.414 0.336,-0.282 0.5,-0.657 0.5,-1.125 0,-0.391 -0.129,-0.731 -0.398,-1.024 -0.266,-0.297 -0.977,-0.726 -2.137,-1.301 -1.125,-0.55 -1.903,-1.109 -2.324,-1.668 -0.422,-0.562 -0.633,-1.269 -0.633,-2.109 0,-0.992 0.394,-1.828 1.187,-2.512 0.789,-0.679 1.731,-1.023 2.821,-1.023 1.793,0 3.039,0.75 3.754,2.25 z"
         style="fill:#ffffff;fill-opacity:1;fill-rule:nonzero;stroke:none"
         id="path106" />
      <path
         d="m 1368.566,352.43 h -8.558 v -13.004 h 8.074 v 2.258 h -5.539 v 2.714 h 4.57 v 2.282 h -4.57 v 3.429 h 6.023 z"
         style="fill:#ffffff;fill-opacity:1;fill-rule:nonzero;stroke:none"
         id="path108" />
      <path
         d="m 1376.152,342.559 c -0.382,-0.762 -0.984,-1.141 -1.793,-1.141 -0.406,0 -0.738,0.109 -0.996,0.324 -0.258,0.215 -0.383,0.488 -0.383,0.817 0,0.242 0.059,0.461 0.196,0.652 0.133,0.195 0.34,0.383 0.621,0.562 0.273,0.18 0.797,0.469 1.558,0.86 1.231,0.637 2.063,1.246 2.493,1.828 0.425,0.582 0.64,1.309 0.64,2.16 0,1.234 -0.414,2.219 -1.238,2.953 -0.824,0.735 -1.906,1.106 -3.246,1.106 -0.953,0 -1.797,-0.242 -2.547,-0.723 -0.746,-0.484 -1.312,-1.156 -1.695,-2.019 l 2.082,-1.227 c 0.488,1.09 1.238,1.633 2.246,1.633 0.551,0 0.996,-0.137 1.328,-0.414 0.332,-0.282 0.5,-0.657 0.5,-1.125 0,-0.391 -0.133,-0.731 -0.398,-1.024 -0.27,-0.297 -0.977,-0.726 -2.141,-1.301 -1.125,-0.55 -1.899,-1.109 -2.324,-1.668 -0.418,-0.562 -0.629,-1.269 -0.629,-2.109 0,-0.992 0.394,-1.828 1.187,-2.512 0.789,-0.679 1.727,-1.023 2.821,-1.023 1.789,0 3.035,0.75 3.75,2.25 z"
         style="fill:#ffffff;fill-opacity:1;fill-rule:nonzero;stroke:none"
         id="path110" />
    </g>
  </g>
</svg>
